<?xml version="1.0" encoding="UTF-8" standalone="no"?>
<!DOCTYPE svg PUBLIC "-//W3C//DTD SVG 1.1//EN" "http://www.w3.org/Graphics/SVG/1.1/DTD/svg11.dtd">
<svg width="100%" height="100%" viewBox="0 0 512 275" version="1.1" xmlns="http://www.w3.org/2000/svg" xmlns:xlink="http://www.w3.org/1999/xlink" xml:space="preserve" xmlns:serif="http://www.serif.com/" style="fill-rule:evenodd;clip-rule:evenodd;stroke-linejoin:round;stroke-miterlimit:2;">
    <g>
        <path d="M25.652,0L25.652,182.498L106.274,91.616L109.939,91.616L50.205,159.045L128.995,274.847L103.342,274.847L35.547,175.169L25.652,186.53L25.652,274.847L0,274.847L0,0L25.652,0ZM153.01,184.73C153.01,125.276 191.372,92.168 241.314,92.168C287.276,92.168 326.723,115.664 326.723,180.458C326.723,239.911 288.361,273.019 238.419,273.019C192.457,273.019 153.01,249.523 153.01,184.73ZM176.806,184.741C176.806,247.376 204.303,270.64 238.4,270.64C274.33,270.64 302.927,237.712 302.927,180.446C302.927,117.812 275.429,94.547 241.333,94.547C205.403,94.547 176.806,127.475 176.806,184.741ZM500.99,271.957C457.662,271.957 459.793,246.681 459.793,246.681L459.793,241.697C452.69,254.513 439.194,273.381 404.035,273.381C362.482,273.381 355.379,247.037 353.248,232.796C349.697,208.944 358.22,191.143 421.437,186.871C437.419,185.447 455.531,186.159 459.793,186.515L459.793,127.418C459.793,127.418 463.7,95.378 422.502,95.378C400.483,95.378 373.137,104.634 364.258,109.618L362.837,107.126C367.454,104.99 389.118,92.529 427.119,92.529C478.616,92.529 484.654,115.314 484.654,127.418L484.654,246.681C484.654,269.821 500.99,269.109 500.99,269.109L512,269.109L512,271.957L500.99,271.957ZM410.249,271.002C436.875,271.002 458.597,246.764 459.648,232.294L459.648,188.522C455.444,188.161 438.977,186.714 421.46,188.884C384.323,193.225 376.965,206.248 379.067,232.656C380.469,250.382 385.724,271.002 410.249,271.002Z" style="fill-rule:nonzero;"/>
        <path d="M457.242,251.457C448.676,263.489 433.749,276.381 404.035,276.381C386.516,276.381 374.838,271.834 366.95,265.542C355.004,256.013 351.642,242.333 350.281,233.24L350.281,233.238C348.735,222.854 349.454,213.551 355.082,205.795C359.245,200.058 366.162,195.102 377.187,191.329C387.636,187.753 401.915,185.186 421.203,183.88C434.695,182.681 449.677,182.984 456.793,183.327L456.793,127.418C456.793,127.297 456.8,127.176 456.815,127.055C456.815,127.055 458.048,116.798 451.132,108.589C446.346,102.908 437.72,98.378 422.502,98.378C401.04,98.378 374.38,107.376 365.726,112.234C364.288,113.041 362.468,112.536 361.652,111.104L360.231,108.611C359.815,107.882 359.724,107.011 359.98,106.211C360.236,105.412 360.815,104.756 361.578,104.403C366.285,102.225 388.375,89.529 427.119,89.529C453.979,89.529 468.924,95.692 477.213,103.213C485.967,111.154 487.654,120.751 487.654,127.418L487.654,246.681C487.654,254.822 489.786,259.66 492.545,262.471C496.253,266.248 500.86,266.112 500.86,266.112C500.903,266.11 500.947,266.109 500.99,266.109L512,266.109C513.657,266.109 515,267.452 515,269.109L515,271.957C515,273.614 513.657,274.957 512,274.957L500.99,274.957C477.866,274.957 466.982,267.898 461.77,261.153C459.072,257.662 457.817,254.165 457.242,251.457ZM500.99,271.957L512,271.957L512,269.109L500.99,269.109C500.99,269.109 484.654,269.821 484.654,246.681L484.654,127.418C484.654,115.314 478.616,92.529 427.119,92.529C389.118,92.529 367.454,104.99 362.837,107.126L364.258,109.618C373.137,104.634 400.483,95.378 422.502,95.378C463.7,95.378 459.793,127.418 459.793,127.418L459.793,186.515C455.531,186.159 437.419,185.447 421.437,186.871C358.22,191.143 349.697,208.944 353.248,232.796C355.379,247.037 362.482,273.381 404.035,273.381C439.194,273.381 452.69,254.513 459.793,241.697L459.793,246.681C459.793,246.681 457.662,271.957 500.99,271.957ZM410.249,271.002C385.724,271.002 380.469,250.382 379.067,232.656C376.965,206.248 384.323,193.225 421.46,188.884C438.977,186.714 455.444,188.161 459.648,188.522L459.648,232.294C458.597,246.764 436.875,271.002 410.249,271.002ZM410.249,268.002C425.326,268.002 438.708,259.707 447.238,250.17C452.706,244.056 456.225,237.452 456.648,232.18C456.648,232.18 456.648,191.286 456.648,191.286C450.222,190.799 436.395,190.057 421.829,191.861C421.822,191.862 421.815,191.863 421.808,191.864C404.274,193.913 393.678,197.768 387.806,204.472C382.054,211.038 381.086,220.206 382.058,232.418L382.058,232.42C383.345,248.701 387.722,268.002 410.249,268.002ZM28.652,0C28.652,0 28.652,174.596 28.652,174.596L104.03,89.625C104.599,88.983 105.416,88.616 106.274,88.616L109.939,88.616C111.119,88.616 112.19,89.308 112.674,90.384C113.159,91.461 112.967,92.721 112.184,93.605L53.999,159.287L131.475,273.159C132.1,274.078 132.166,275.268 131.647,276.25C131.127,277.233 130.106,277.847 128.995,277.847L103.342,277.847C102.349,277.847 101.42,277.355 100.862,276.534C100.862,276.534 35.254,180.073 35.254,180.073L28.652,187.653L28.652,274.847C28.652,276.504 27.309,277.847 25.652,277.847L-0,277.847C-1.657,277.847 -3,276.504 -3,274.847L-3,-0C-3,-1.657 -1.657,-3 0,-3L25.652,-3C27.309,-3 28.652,-1.657 28.652,0ZM25.652,0L0,0L0,274.847L25.652,274.847L25.652,186.53L35.547,175.169L103.342,274.847L128.995,274.847L50.205,159.045L109.939,91.616L106.274,91.616L25.652,182.498L25.652,0ZM150.01,184.73C150.01,154.066 159.988,130.228 176.321,114.024C192.691,97.782 215.495,89.168 241.314,89.168C265.074,89.168 287.119,95.333 303.255,109.78C319.384,124.221 329.723,146.977 329.723,180.458C329.723,211.121 319.745,234.959 303.412,251.163C287.042,267.405 264.238,276.019 238.419,276.019C214.659,276.019 192.614,269.854 176.478,255.407C160.349,240.966 150.01,218.21 150.01,184.73ZM153.01,184.73C153.01,249.523 192.457,273.019 238.419,273.019C288.361,273.019 326.723,239.911 326.723,180.458C326.723,115.664 287.276,92.168 241.314,92.168C191.372,92.168 153.01,125.276 153.01,184.73ZM176.806,184.741C176.806,127.475 205.403,94.547 241.333,94.547C275.429,94.547 302.927,117.812 302.927,180.446C302.927,237.712 274.33,270.64 238.4,270.64C204.303,270.64 176.806,247.376 176.806,184.741ZM179.806,184.741C179.806,221.1 189.121,243.836 203.908,256.136C213.556,264.161 225.486,267.64 238.4,267.64C272.974,267.64 299.927,235.552 299.927,180.446C299.927,144.087 290.612,121.351 275.825,109.051C266.177,101.026 254.247,97.547 241.333,97.547C206.759,97.547 179.806,129.635 179.806,184.741Z"/>
    </g>
</svg>
