<?xml version="1.0" encoding="UTF-8" standalone="no"?>
<!DOCTYPE svg PUBLIC "-//W3C//DTD SVG 1.1//EN" "http://www.w3.org/Graphics/SVG/1.1/DTD/svg11.dtd">
<svg width="100%" height="100%" viewBox="0 0 601 600" version="1.1" xmlns="http://www.w3.org/2000/svg" xmlns:xlink="http://www.w3.org/1999/xlink" xml:space="preserve" xmlns:serif="http://www.serif.com/" style="fill-rule:evenodd;clip-rule:evenodd;stroke-linejoin:round;stroke-miterlimit:2;">
    <g transform="matrix(1,0,0,1,-2,-0.00419617)">
        <g transform="matrix(4.16667,0,0,4.16667,2,0)">
            <path d="M122.732,122.728L101.084,122.728L101.084,85.165C101.084,74.083 96.372,70.665 90.295,70.665C83.872,70.665 77.574,75.499 77.574,85.442L77.574,122.728L55.925,122.728L55.925,53.955L76.744,53.955L76.744,63.484L77.021,63.484C79.116,59.25 86.428,52.022 97.598,52.022C109.678,52.022 122.732,59.187 122.732,80.194L122.732,122.728ZM32.095,44.373C25.202,44.373 19.614,39.126 19.614,31.946C19.614,24.767 25.202,19.514 32.095,19.514C38.989,19.514 44.577,24.767 44.577,31.946C44.577,39.126 38.989,44.373 32.095,44.373ZM42.92,122.676L21.271,122.676L21.271,53.902L42.92,53.902L42.92,122.676ZM133.374,0.001L10.63,0.001C4.759,0.001 0,4.76 0,10.631L0,133.37C0,139.241 4.759,144 10.63,144L133.374,144C139.245,144 144.004,139.241 144.004,133.37L144.004,10.631C144.004,4.76 139.245,0.001 133.374,0.001Z" style="fill-rule:nonzero;"/>
        </g>
    </g>
</svg>
