<?xml version="1.0" encoding="UTF-8" standalone="no"?>
<!DOCTYPE svg PUBLIC "-//W3C//DTD SVG 1.1//EN" "http://www.w3.org/Graphics/SVG/1.1/DTD/svg11.dtd">
<svg width="100%" height="100%" viewBox="0 0 155 157" version="1.1" xmlns="http://www.w3.org/2000/svg" xmlns:xlink="http://www.w3.org/1999/xlink" xml:space="preserve" xmlns:serif="http://www.serif.com/" style="fill-rule:evenodd;clip-rule:evenodd;stroke-linejoin:round;stroke-miterlimit:2;">
    <g transform="matrix(1,0,0,1,-24.89,0)">
        <path d="M101.76,0L71,17.77L71,53.31L101.78,71.08L132.56,53.31L132.56,17.77L101.76,0ZM120.54,20.08L101.76,30.92L83,20.08L101.76,9.24L120.54,20.08ZM79,27L97.76,37.85L97.76,59.53L79,48.69L79,27ZM105.78,59.52L105.78,37.85L124.54,27L124.54,48.69L105.78,59.52Z" style="fill:rgb(57,140,203);fill-rule:nonzero;"/>
        <path d="M149.06,73.9L118.28,91.67L118.28,127.2L149.06,145L179.84,127.23L179.84,91.67L149.06,73.9ZM167.84,94L149.06,104.85L130.28,94L149.06,83.16L167.84,94ZM126.28,100.93L145.06,111.77L145.06,133.46L126.28,122.62L126.28,100.93ZM153.06,133.46L153.06,111.74L171.84,100.9L171.84,122.59L153.06,133.46Z" style="fill:rgb(57,140,203);fill-rule:nonzero;"/>
        <path d="M55.67,73.9L24.89,91.67L24.89,127.2L55.67,145L86.45,127.2L86.45,91.67L55.67,73.9ZM74.45,94L55.67,104.82L36.89,94L55.67,83.13L74.45,94ZM32.89,100.9L51.67,111.74L51.67,133.43L32.89,122.59L32.89,100.9ZM59.67,133.43L59.67,111.74L78.45,100.9L78.45,122.59L59.67,133.43Z" style="fill:rgb(57,140,203);fill-rule:nonzero;"/>
        <path d="M132.54,27.53L132.54,36.77L161.84,53.69L161.84,81.27L169.84,85.89L169.84,49.07L132.54,27.53Z" style="fill:rgb(57,140,203);fill-rule:nonzero;"/>
        <path d="M127.41,132.47L102.17,147.04L77.13,132.58L69.13,137.2L102.17,156.28L135.41,137.09L133.67,136.09L127.41,132.47Z" style="fill:rgb(57,140,203);fill-rule:nonzero;"/>
        <path d="M42.5,53.69L70.98,37.24L70.98,28.01L34.5,49.07L34.5,86.12L42.5,81.5L42.5,53.69Z" style="fill:rgb(57,140,203);fill-rule:nonzero;"/>
        <path d="M77.13,132.58L69.13,137.2" style="fill:none;fill-rule:nonzero;"/>
        <path d="M42.5,81.5L34.5,86.12" style="fill:none;fill-rule:nonzero;"/>
    </g>
</svg>
